<svg width="566" height="503" viewBox="0 0 566 503" fill="none" xmlns="http://www.w3.org/2000/svg">
<path d="M56.3367 116.702C92.0917 73.8894 135.114 41.7804 183.715 20.9305C231.887 0.112132 285.606 -9.87691 315.26 17.3355C344.944 44.9778 350.595 110.251 398.021 149.99C445.478 190.158 534.711 204.791 558.421 239.353C581.701 273.948 539.458 328.472 493.155 362.982C446.82 397.063 397.253 410.637 347.436 438.49C297.62 466.344 248.413 508.413 209.034 501.793C169.623 494.744 140.437 438.542 101.135 391.726C61.8019 344.48 12.7512 306.157 2.43824 259.808C-7.84318 213.889 20.5817 159.514 56.3367 116.702Z" fill="#54C68E" fill-opacity="0.6"/>
</svg>
