<?xml version="1.0" encoding="UTF-8"?>
<svg xmlns="http://www.w3.org/2000/svg" xmlns:xlink="http://www.w3.org/1999/xlink" viewBox="0 0 32 32" width="32px" height="32px">
<g id="surface40090849">
<path style=" stroke:none;fill-rule:nonzero;fill:rgb(0%,0%,0%);fill-opacity:0.41176;" d="M 25.601562 4.265625 L 6.398438 4.265625 C 5.222656 4.265625 4.265625 5.222656 4.265625 6.398438 L 4.265625 25.601562 C 4.265625 26.777344 5.222656 27.734375 6.398438 27.734375 L 17.066406 27.734375 L 17.066406 18.132812 L 13.867188 18.132812 L 13.867188 14.933594 L 17.066406 14.933594 L 17.066406 13.214844 C 17.066406 9.960938 18.652344 8.535156 21.355469 8.535156 C 22.652344 8.535156 23.335938 8.628906 23.660156 8.671875 L 23.660156 11.734375 L 21.816406 11.734375 C 20.667969 11.734375 20.265625 12.339844 20.265625 13.566406 L 20.265625 14.933594 L 23.632812 14.933594 L 23.175781 18.132812 L 20.265625 18.132812 L 20.265625 27.734375 L 25.601562 27.734375 C 26.777344 27.734375 27.734375 26.777344 27.734375 25.601562 L 27.734375 6.398438 C 27.734375 5.222656 26.777344 4.265625 25.601562 4.265625 Z M 25.601562 4.265625 "/>
</g>
</svg>
