<?xml version="1.0" encoding="UTF-8"?>
<svg xmlns="http://www.w3.org/2000/svg" xmlns:xlink="http://www.w3.org/1999/xlink" viewBox="0 0 32 32" width="32px" height="32px">
<g id="surface132250822">
<path style=" stroke:none;fill-rule:nonzero;fill:rgb(0%,0%,0%);fill-opacity:0.41176;" d="M 29.867188 7.398438 C 28.847656 7.851562 27.75 8.15625 26.597656 8.296875 C 27.773438 7.589844 28.675781 6.476562 29.101562 5.148438 C 28 5.800781 26.78125 6.273438 25.484375 6.527344 C 24.449219 5.421875 22.96875 4.730469 21.332031 4.730469 C 18.191406 4.730469 15.644531 7.28125 15.644531 10.421875 C 15.644531 10.867188 15.695312 11.300781 15.789062 11.71875 C 11.0625 11.480469 6.871094 9.214844 4.0625 5.773438 C 3.574219 6.613281 3.292969 7.589844 3.292969 8.632812 C 3.292969 10.605469 4.296875 12.347656 5.824219 13.367188 C 4.890625 13.339844 4.015625 13.082031 3.246094 12.65625 C 3.246094 12.679688 3.246094 12.703125 3.246094 12.730469 C 3.246094 15.484375 5.207031 17.785156 7.8125 18.308594 C 7.335938 18.4375 6.832031 18.507812 6.3125 18.507812 C 5.945312 18.507812 5.589844 18.46875 5.242188 18.40625 C 5.964844 20.664062 8.066406 22.3125 10.558594 22.355469 C 8.609375 23.882812 6.15625 24.792969 3.488281 24.792969 C 3.03125 24.792969 2.578125 24.765625 2.132812 24.714844 C 4.652344 26.328125 7.640625 27.269531 10.855469 27.269531 C 21.320312 27.269531 27.042969 18.597656 27.042969 11.082031 C 27.042969 10.835938 27.035156 10.589844 27.027344 10.34375 C 28.136719 9.542969 29.105469 8.539062 29.867188 7.398438 Z M 29.867188 7.398438 "/>
</g>
</svg>
