<?xml version="1.0" encoding="UTF-8"?>
<svg xmlns="http://www.w3.org/2000/svg" xmlns:xlink="http://www.w3.org/1999/xlink" viewBox="0 0 32 32" width="32px" height="32px">
<g id="surface40080918">
<path style=" stroke:none;fill-rule:nonzero;fill:rgb(0%,0%,0%);fill-opacity:0.41176;" d="M 26.238281 2.558594 L 5.761719 2.558594 C 3.992188 2.558594 2.558594 3.992188 2.558594 5.761719 L 2.558594 26.238281 C 2.558594 28.007812 3.992188 29.441406 5.761719 29.441406 L 26.238281 29.441406 C 28.007812 29.441406 29.441406 28.007812 29.441406 26.238281 L 29.441406 5.761719 C 29.441406 3.992188 28.007812 2.558594 26.238281 2.558594 Z M 10.878906 12.800781 L 10.878906 24.960938 L 7.039062 24.960938 L 7.039062 12.800781 Z M 7.039062 9.261719 C 7.039062 8.363281 7.808594 7.679688 8.960938 7.679688 C 10.113281 7.679688 10.835938 8.363281 10.878906 9.261719 C 10.878906 10.15625 10.164062 10.878906 8.960938 10.878906 C 7.808594 10.878906 7.039062 10.15625 7.039062 9.261719 Z M 24.960938 24.960938 L 21.121094 24.960938 C 21.121094 24.960938 21.121094 19.035156 21.121094 18.558594 C 21.121094 17.28125 20.480469 16 18.878906 15.972656 L 18.828125 15.972656 C 17.28125 15.972656 16.640625 17.292969 16.640625 18.558594 C 16.640625 19.140625 16.640625 24.960938 16.640625 24.960938 L 12.800781 24.960938 L 12.800781 12.800781 L 16.640625 12.800781 L 16.640625 14.4375 C 16.640625 14.4375 17.875 12.800781 20.359375 12.800781 C 22.898438 12.800781 24.960938 14.546875 24.960938 18.085938 Z M 24.960938 24.960938 "/>
</g>
</svg>
